<?xml version="1.0" standalone="no"?>
<!DOCTYPE svg PUBLIC "-//W3C//DTD SVG 20010904//EN"
 "http://www.w3.org/TR/2001/REC-SVG-20010904/DTD/svg10.dtd">
<svg version="1.0" xmlns="http://www.w3.org/2000/svg"
 width="1024.000000pt" height="1024.000000pt" viewBox="0 0 1024.000000 1024.000000"
 preserveAspectRatio="xMidYMid meet">
<metadata>
Created by potrace 1.14, written by Peter Selinger 2001-2017
</metadata>
<g transform="translate(0.000000,1024.000000) scale(0.100000,-0.100000)"
fill="#000000" stroke="none">
<path d="M5115 10033 c-870 -109 -1562 -362 -2213 -810 -141 -97 -412 -310
-412 -324 0 -5 -6 -9 -13 -9 -7 0 -66 -54 -132 -120 -66 -66 -124 -120 -130
-120 -6 0 -16 15 -23 34 -7 18 -21 44 -32 56 -11 13 -20 28 -20 34 0 6 -20 30
-44 53 -69 65 -156 71 -225 15 -76 -62 -88 -175 -45 -426 15 -83 26 -159 26
-168 0 -10 -36 -63 -78 -119 -266 -352 -508 -808 -654 -1235 -181 -530 -270
-1059 -270 -1609 0 -244 17 -443 60 -705 77 -465 200 -888 349 -1190 l56 -115
-235 -1 c-255 0 -350 -13 -520 -71 -142 -48 -409 -203 -410 -238 0 -6 -10 -15
-22 -20 -40 -18 -68 -89 -68 -174 0 -42 -14 -326 -30 -631 -16 -305 -30 -645
-30 -754 l0 -200 50 -46 c56 -52 230 -148 552 -305 120 -58 220 -110 223 -114
6 -11 -94 -88 -184 -141 -67 -40 -181 -93 -181 -85 0 4 -126 -41 -142 -51 -32
-20 108 -128 242 -185 128 -54 207 -69 369 -69 211 0 302 30 417 134 84 76
118 151 118 261 -1 132 -48 201 -217 317 -134 93 -194 169 -241 310 -22 65
-61 306 -51 316 6 6 875 -17 1055 -28 305 -19 594 -51 855 -96 22 -4 65 -24
95 -45 86 -58 401 -233 550 -306 434 -211 946 -361 1440 -422 636 -79 1251
-44 1775 100 710 196 1366 541 1881 990 187 163 417 398 561 574 515 628 830
1296 993 2103 65 323 72 394 77 812 7 503 -13 736 -93 1122 -66 316 -129 510
-284 870 -178 416 -429 823 -726 1178 -155 186 -260 293 -475 481 -341 300
-599 477 -983 675 -506 260 -991 408 -1584 483 -143 18 -212 21 -555 20 -216
-1 -405 -4 -422 -6z m1504 -229 c140 -31 401 -109 569 -170 314 -114 626 -270
919 -460 140 -91 383 -271 383 -284 0 -5 -11 -12 -25 -16 -13 -3 -29 -12 -36
-20 -15 -18 -65 -18 -72 0 -3 8 -15 20 -27 26 -18 10 -22 7 -35 -24 -27 -65
-20 -95 41 -166 106 -125 193 -274 247 -425 27 -76 77 -287 77 -326 0 -45 12
-51 55 -29 52 27 65 25 138 -11 76 -38 73 -35 57 -54 -28 -34 -73 -48 -152
-47 l-78 1 0 -55 c0 -30 -5 -88 -11 -127 -57 -383 -304 -756 -713 -1075 l-30
-23 26 -52 c34 -70 72 -113 133 -152 128 -83 215 -180 215 -240 0 -28 -5 -35
-31 -44 -18 -6 -54 -11 -80 -11 -54 0 -54 1 -37 -35 10 -21 18 -25 57 -25 58
0 146 40 156 70 4 12 4 51 0 86 -6 60 -5 64 14 64 12 0 21 5 21 12 0 6 -70 79
-155 161 l-155 149 0 48 c0 94 51 90 125 -9 31 -42 54 -60 100 -81 105 -47
185 -133 185 -197 0 -25 7 -40 26 -56 80 -66 84 -72 84 -136 0 -33 4 -71 10
-85 9 -25 13 -26 85 -26 l75 0 0 32 c0 20 -13 50 -35 82 -19 28 -37 65 -41 82
-5 28 -3 32 37 50 27 12 65 19 103 19 57 0 61 -2 75 -30 10 -20 15 -64 15
-128 l1 -98 42 -37 c22 -20 54 -48 71 -62 l29 -25 48 32 c56 39 59 39 86 12
22 -22 47 -22 147 -3 21 4 38 2 48 -7 33 -27 1 -206 -62 -348 l-24 -54 -163 6
c-187 7 -265 23 -399 85 -80 37 -113 46 -160 43 -10 -1 -27 -20 -39 -43 -12
-24 -33 -58 -47 -77 -23 -31 -28 -33 -72 -29 -34 4 -71 19 -136 59 -49 30
-129 74 -179 99 l-90 45 2 50 c1 28 5 83 9 123 3 41 2 77 -2 82 -12 11 -399
25 -457 16 -35 -5 -58 -18 -94 -50 -59 -53 -102 -76 -142 -76 -24 0 -171 41
-237 67 -7 2 -14 -13 -18 -37 -10 -64 -39 -112 -101 -164 -63 -55 -87 -95
-111 -190 -20 -78 -9 -76 -184 -41 -69 13 -199 30 -290 36 -143 10 -168 9
-195 -4 -43 -22 -85 -27 -78 -10 3 7 9 13 14 13 5 0 9 5 9 10 0 6 24 45 54 88
137 196 201 400 213 672 7 165 -5 276 -43 408 -32 113 -108 265 -186 372 -87
120 -152 229 -184 310 -15 39 -30 70 -34 70 -12 0 -20 -40 -20 -102 0 -49 8
-73 70 -200 121 -247 170 -432 170 -643 0 -197 -45 -330 -164 -482 -60 -77
-113 -116 -148 -111 -20 3 -23 8 -22 49 2 54 37 127 104 219 91 124 120 212
120 366 0 112 -18 170 -71 222 -35 35 -40 47 -49 113 -15 108 -25 139 -95 299
-90 209 -115 283 -115 344 0 99 44 207 130 321 28 37 49 69 47 71 -2 2 -28
-13 -58 -33 -120 -81 -231 -230 -276 -370 -47 -148 -42 -278 18 -486 54 -188
47 -311 -23 -420 -25 -40 -35 -48 -57 -45 l-26 3 3 128 c5 158 -7 211 -60 278
-69 88 -82 128 -82 254 1 97 5 121 33 205 37 108 63 158 207 391 124 201 173
298 207 406 69 217 52 393 -54 569 -36 59 -125 156 -161 175 -20 11 -21 10
-14 -22 61 -304 -4 -449 -342 -766 -337 -316 -417 -409 -474 -551 -21 -52 -23
-73 -23 -222 0 -150 2 -169 23 -214 12 -27 22 -59 22 -72 0 -13 -22 -78 -50
-143 -73 -174 -103 -306 -104 -461 0 -74 5 -147 13 -180 18 -73 83 -230 96
-230 6 0 27 -26 48 -59 94 -145 283 -345 372 -392 25 -13 45 -30 45 -36 0 -7
6 -13 13 -13 43 0 240 -131 223 -148 -3 -2 -12 1 -20 7 -8 7 -39 14 -69 15
-30 2 -66 11 -80 21 -40 26 -354 27 -532 1 -71 -10 -137 -22 -145 -26 -32 -17
-182 -32 -395 -39 -275 -10 -280 -12 -413 -150 -154 -160 -162 -169 -162 -190
0 -12 -6 -21 -15 -21 -9 0 -18 -12 -22 -30 -3 -17 -14 -35 -23 -40 -31 -16
-56 -71 -79 -170 -13 -52 -28 -101 -33 -108 -6 -6 -23 -12 -38 -12 -15 0 -39
-9 -53 -20 -14 -11 -35 -20 -46 -20 -14 0 -21 -6 -21 -19 0 -24 36 -51 67 -51
12 0 25 -5 28 -10 8 -13 -20 -99 -56 -172 -16 -32 -29 -71 -29 -86 0 -16 -7
-36 -16 -43 -19 -16 -54 -93 -58 -126 -1 -12 -16 -35 -32 -51 -16 -16 -44 -49
-62 -74 -30 -42 -72 -69 -72 -47 0 5 -16 27 -36 49 -40 44 -83 53 -120 25 -27
-20 -51 -19 -82 6 -15 11 -43 30 -62 42 -44 28 -51 76 -21 136 25 49 27 111 5
158 -31 63 -68 74 -196 59 -67 -8 -68 -8 -68 16 0 13 6 32 14 43 7 11 25 57
40 102 15 45 40 98 57 119 32 41 35 53 17 76 -16 21 -33 24 -83 14 -71 -14
-93 -32 -131 -109 -41 -81 -47 -87 -90 -87 -16 0 -39 -7 -50 -15 -32 -24 -77
-18 -130 18 -71 48 -96 102 -102 227 l-5 100 33 30 c27 25 32 38 34 78 l1 47
200 0 c110 0 205 3 211 8 7 4 74 9 149 13 88 3 145 10 159 18 11 8 38 17 59
20 39 7 40 7 51 -46 4 -17 18 -34 36 -43 51 -27 53 -23 47 75 -4 71 -3 90 8
90 7 0 15 6 18 13 5 14 90 43 157 52 37 5 56 17 106 65 34 32 77 63 96 70 20
7 43 26 52 41 9 15 30 41 46 58 17 16 30 39 30 50 0 18 6 20 55 19 100 -3 116
36 92 223 -12 96 -20 126 -39 152 -20 26 -23 38 -17 67 4 19 12 36 18 38 6 2
18 17 26 32 19 37 4 47 -33 23 -15 -10 -51 -30 -79 -43 -29 -13 -55 -31 -58
-41 -8 -24 -47 -33 -62 -13 -8 11 -25 14 -60 12 -46 -3 -48 -4 -51 -35 -2 -22
-7 -30 -17 -27 -7 3 -31 -4 -54 -16 l-41 -20 0 24 c0 64 -33 91 -101 84 -32
-3 -34 -5 -34 -39 l0 -37 -85 -5 c-47 -3 -93 -8 -102 -12 -15 -6 -18 -2 -18
24 0 32 -22 51 -59 51 -30 0 -30 64 -1 80 11 6 20 17 20 25 0 8 4 15 9 15 5 0
20 21 33 47 19 38 112 155 160 200 98 94 238 190 325 223 24 9 48 23 53 30 8
13 52 32 122 53 28 8 52 8 96 -1 72 -15 219 -16 260 -1 17 6 34 20 38 31 6 20
11 21 103 15 53 -4 113 -10 133 -13 l37 -7 -27 -20 c-53 -40 -124 -113 -171
-177 -54 -72 -116 -178 -109 -186 7 -6 88 54 88 66 0 19 81 133 102 144 11 6
26 20 32 30 23 40 106 114 135 121 17 4 34 12 38 20 11 19 81 46 89 34 8 -13
106 -69 122 -69 20 0 14 31 -18 94 -21 40 -30 73 -30 105 0 67 -43 122 -130
166 -45 23 -50 31 -50 81 0 55 31 97 66 88 17 -4 24 -2 24 8 0 7 10 18 22 23
25 12 45 41 35 51 -9 10 -232 -141 -258 -175 -12 -15 -19 -36 -17 -55 3 -27 9
-32 53 -45 l50 -15 -69 -7 c-84 -9 -176 -53 -232 -110 -36 -37 -39 -46 -44
-107 l-5 -67 -120 -3 c-98 -2 -132 1 -187 18 -44 13 -68 26 -68 35 0 10 -10
15 -30 15 -18 0 -30 5 -30 13 0 8 -10 23 -22 35 -32 29 -173 94 -195 90 -12
-2 2 -13 42 -31 33 -15 63 -33 67 -40 4 -7 8 -33 8 -59 l0 -47 -52 -15 c-108
-31 -233 -102 -313 -175 -42 -39 -80 -71 -85 -71 -5 0 -14 17 -21 38 -6 20
-20 48 -29 62 -10 14 -21 35 -24 48 -9 26 -88 92 -135 111 -30 13 -31 16 -31
72 l0 59 -40 0 c-44 0 -47 5 -25 57 8 19 15 51 15 69 0 32 -2 34 -35 34 -39 0
-82 17 -89 35 -2 7 22 42 55 76 52 56 99 124 99 145 0 3 -25 3 -56 -1 -66 -8
-198 20 -190 41 3 7 -4 14 -14 17 -31 8 -3 54 36 62 30 5 73 40 63 50 -3 2
-37 9 -76 15 -85 12 -101 17 -113 40 -8 15 -1 26 36 59 57 50 55 70 -10 86
-33 9 -61 25 -88 53 -40 39 -41 41 -39 106 1 64 0 66 -30 82 -41 21 -119 93
-119 110 0 7 14 21 30 31 37 21 37 29 2 47 -15 8 -35 23 -45 33 -16 19 -16 21
3 38 24 22 26 43 4 52 -16 6 -74 116 -74 140 0 7 9 13 20 13 26 0 26 0 -10 75
-17 35 -35 87 -41 117 -10 54 -3 208 10 208 26 0 71 -69 112 -172 11 -29 27
-60 34 -68 17 -19 65 -146 65 -172 0 -31 57 -131 101 -177 22 -22 63 -59 92
-80 28 -22 68 -53 87 -70 38 -32 50 -27 50 21 0 16 13 69 29 119 25 76 27 91
15 96 -9 3 -27 -6 -42 -19 -76 -70 -128 -90 -156 -59 -10 11 -16 25 -14 31 3
10 78 45 153 72 17 6 37 19 46 30 8 11 22 19 30 18 30 -5 39 1 39 24 0 23 65
143 111 205 17 23 18 34 11 90 -9 65 -22 83 -57 79 -14 -2 -25 -17 -35 -45
-13 -40 -17 -43 -50 -42 -19 0 -52 3 -73 7 l-37 7 31 38 c28 34 163 149 263
224 55 42 155 54 226 29 25 -9 51 -16 58 -16 14 0 152 110 152 122 0 4 -10 13
-22 19 -39 20 -68 52 -68 74 0 17 27 38 128 97 137 82 186 108 200 108 5 0 14
-12 21 -27 7 -16 19 -38 27 -50 l14 -22 147 74 c162 81 361 165 390 165 28 0
43 20 43 55 0 16 5 47 10 67 10 35 15 38 88 62 71 23 206 62 295 85 20 5 37 6
37 3 0 -4 -9 -36 -20 -71 -11 -36 -17 -67 -14 -70 2 -3 30 1 62 8 104 23 334
60 476 78 113 14 221 18 551 18 360 -1 434 -3 609 -23 122 -14 203 -19 209
-13 5 5 3 33 -7 71 -9 34 -16 63 -16 64 0 7 171 -18 269 -40z m-1019 -1669 c0
-25 -49 -116 -89 -165 -20 -24 -104 -115 -187 -202 -177 -184 -292 -323 -385
-468 -98 -152 -99 -154 -112 -141 -7 7 -11 39 -10 72 2 78 48 176 130 279 69
86 628 640 646 640 4 0 7 -7 7 -15z m3620 -196 c0 -5 -11 -9 -25 -9 -28 0 -45
25 -45 66 l0 28 35 -38 c19 -21 35 -42 35 -47z m-242 42 c40 -20 62 -55 62
-96 0 -21 -5 -25 -27 -25 -37 0 -93 66 -93 109 0 36 8 38 58 12z m-6816 -233
c28 -28 19 -41 -63 -95 -35 -23 -83 -58 -107 -78 -31 -25 -53 -35 -78 -35 -41
0 -43 12 -8 43 15 12 40 46 56 75 28 48 52 66 60 42 2 -6 28 8 58 30 30 21 56
40 58 40 1 0 12 -10 24 -22z m7237 -70 c-10 -19 -18 -21 -43 -12 -15 6 -22 35
-10 46 3 3 18 1 34 -5 23 -9 27 -14 19 -29z m-7026 -363 c3 -20 1 -25 -10 -21
-8 3 -19 6 -24 6 -13 0 -11 24 3 38 15 15 25 8 31 -23z m126 -277 c5 -13 6
-27 1 -31 -4 -4 -5 -41 -2 -82 4 -65 2 -75 -12 -75 -12 0 -16 10 -16 41 0 26
-6 46 -15 53 -9 6 -18 34 -22 64 l-6 52 32 0 c24 0 34 -6 40 -22z m71 -113
c-10 -12 -15 -13 -21 -3 -11 17 11 42 24 29 7 -7 6 -15 -3 -26z m3425 -245
c19 -37 19 -122 0 -186 -22 -74 -94 -170 -264 -347 -180 -189 -221 -257 -229
-381 -7 -113 25 -270 57 -281 17 -5 67 -82 59 -90 -2 -3 -33 -2 -69 1 l-65 7
-44 96 c-45 95 -45 97 -45 206 l0 110 45 88 c24 48 47 87 51 87 4 0 23 21 41
48 19 26 86 101 149 167 63 66 130 142 148 168 42 62 95 176 116 252 28 102
27 100 50 55z m3562 -10 c-10 -46 -35 -78 -78 -97 -37 -16 -38 -17 -21 -36 9
-10 61 -46 116 -80 116 -71 130 -92 114 -174 -10 -49 -12 -52 -48 -58 -49 -8
-103 7 -164 46 -62 39 -91 44 -191 30 -63 -9 -98 -21 -172 -61 -92 -49 -153
-64 -153 -37 0 8 21 20 47 28 62 19 66 40 11 59 -52 18 -58 41 -30 108 11 26
23 83 26 126 10 116 14 120 96 112 91 -8 100 -12 100 -48 0 -55 15 -68 76 -68
l56 0 -7 50 -7 50 49 21 c76 34 146 58 167 59 15 0 17 -5 13 -30z m-6769 -17
c-16 -4 -16 -7 5 -36 12 -18 26 -35 31 -38 12 -9 -55 -30 -106 -32 -37 -2 -43
1 -46 19 -4 25 80 95 112 93 17 -1 17 -2 4 -6z m7037 -614 c77 -59 113 -75
184 -85 51 -7 52 -7 49 -38 -3 -29 -5 -31 -39 -28 -59 5 -156 -17 -225 -51
-65 -32 -76 -43 -50 -53 11 -4 12 -14 5 -45 -11 -47 -6 -59 23 -59 12 0 71
-12 130 -26 86 -21 108 -29 104 -41 -3 -8 -6 -21 -6 -28 0 -16 -29 -13 -147
11 -105 22 -135 17 -147 -24 -7 -25 -14 -32 -30 -30 -30 4 -30 33 2 188 l27
135 72 35 c40 19 73 39 73 43 0 4 -17 15 -37 23 -57 24 -83 52 -83 91 0 46 16
43 95 -18z m-7339 -38 c66 -26 137 -54 159 -61 22 -7 45 -17 50 -24 19 -21
128 -91 199 -126 88 -43 97 -63 74 -150 -23 -85 -6 -83 24 3 28 81 42 89 113
64 41 -15 43 -19 31 -79 -3 -16 -1 -28 4 -28 6 0 10 11 10 24 0 36 11 38 67
12 50 -24 51 -24 57 -80 23 -179 -88 -297 -168 -180 l-25 37 -10 -41 c-8 -28
-32 -61 -76 -107 -74 -77 -97 -81 -105 -22 -3 21 -9 39 -14 40 -5 1 -17 -23
-28 -53 -20 -60 -55 -100 -69 -78 -5 7 -11 32 -15 56 -3 23 -10 45 -15 48 -5
3 -20 -20 -33 -51 -40 -88 -72 -87 -83 3 -3 29 -9 52 -12 52 -3 0 -37 -25 -76
-56 -82 -66 -115 -84 -150 -84 -21 0 -25 5 -25 30 0 17 -3 30 -7 30 -5 0 -28
-14 -53 -30 -25 -16 -57 -30 -72 -30 -23 0 -27 5 -33 40 -4 22 -12 40 -20 40
-7 0 -29 -13 -50 -30 -38 -30 -77 -38 -104 -21 -10 6 -12 21 -8 51 4 29 2 40
-6 36 -42 -18 -120 -37 -133 -32 -20 8 -17 55 6 94 11 18 20 35 20 37 0 3 -34
2 -75 -2 -74 -6 -74 -6 -85 21 -8 22 -6 37 10 74 21 48 17 61 -21 62 -9 0 -27
8 -39 18 -21 17 -21 20 -7 53 13 32 69 90 99 102 10 5 10 8 -2 16 -48 31 -51
37 -44 65 9 38 51 63 239 144 88 39 203 90 255 115 52 25 102 46 111 46 9 1
70 -21 135 -48z m904 -460 c0 -5 14 -14 30 -20 34 -11 37 -22 14 -45 -18 -18
-60 -21 -98 -6 -24 9 -26 15 -26 65 l0 55 40 -20 c22 -11 40 -24 40 -29z
m-2324 -28 c67 -39 74 -50 74 -127 0 -43 4 -52 45 -94 50 -50 49 -49 34 -88
-5 -16 -7 -46 -3 -67 5 -32 12 -41 40 -53 31 -13 34 -18 34 -55 0 -22 5 -50
12 -62 20 -40 80 -107 94 -107 19 0 19 2 -26 84 -28 51 -40 85 -40 113 0 24
-7 50 -19 64 -10 13 -24 49 -31 79 -7 30 -19 68 -27 83 -22 43 -14 81 18 85
32 4 44 -10 69 -83 11 -32 39 -83 61 -113 23 -30 54 -82 69 -116 16 -33 49
-88 74 -121 60 -78 73 -120 59 -188 -8 -40 -8 -59 2 -83 20 -49 112 -121 239
-186 112 -57 123 -60 172 -55 28 3 66 12 82 21 58 30 78 22 167 -63 83 -80
120 -99 218 -116 52 -8 105 -58 137 -130 22 -48 39 -70 80 -99 28 -20 71 -55
95 -77 27 -25 57 -42 78 -46 30 -5 38 -1 58 26 14 19 32 31 46 31 19 0 25 -9
40 -57 11 -36 18 -89 18 -138 0 -94 -19 -142 -108 -273 -71 -103 -85 -151 -63
-216 9 -26 16 -72 16 -102 0 -68 17 -103 85 -175 72 -75 128 -165 166 -263 41
-108 62 -133 182 -218 221 -156 227 -162 227 -263 l0 -58 -47 6 c-75 9 -419
112 -630 188 -326 118 -712 292 -1040 470 -209 114 -223 123 -237 160 -9 21
-20 39 -26 39 -5 0 -10 10 -10 21 0 25 -57 130 -77 142 -7 4 -13 13 -13 19 0
6 -13 41 -29 77 -16 36 -48 107 -70 156 -22 50 -43 104 -47 120 -4 17 -13 39
-20 50 -14 21 -57 160 -131 415 -42 145 -52 183 -73 270 -10 38 -54 328 -70
455 -25 200 -42 755 -23 755 3 0 34 -16 69 -37z m8677 -34 c45 -11 112 -29
148 -40 63 -18 65 -20 61 -48 l-4 -28 -71 13 c-40 8 -110 24 -157 37 -83 22
-85 23 -88 55 -4 39 0 39 111 11z m-3407 -78 c5 -6 65 -17 134 -26 69 -8 131
-18 138 -20 26 -9 321 -35 467 -41 155 -7 185 -15 185 -54 0 -9 14 -56 30
-105 17 -49 30 -100 30 -113 l0 -25 -212 6 c-166 5 -221 3 -250 -7 -31 -11
-38 -11 -38 -1 0 15 -22 21 -140 35 -54 6 -106 6 -142 1 -34 -6 -81 -6 -120
-1 -86 13 -160 12 -214 -1 -37 -10 -45 -15 -41 -30 4 -16 -1 -19 -26 -19 -18
0 -39 -5 -47 -10 -13 -8 -13 -11 2 -22 10 -7 19 -24 20 -37 2 -20 -3 -26 -29
-34 -39 -12 -43 -27 -8 -27 22 0 25 -4 25 -40 0 -27 -5 -42 -17 -49 -15 -8
-16 -13 -5 -30 17 -28 17 -28 -28 -35 -67 -11 -44 -45 31 -46 38 0 69 -41 100
-132 11 -31 10 -38 -4 -53 -19 -18 -22 -35 -7 -35 5 0 0 -16 -11 -35 -19 -32
-25 -35 -72 -37 l-52 -1 50 -6 c32 -4 49 -10 48 -18 -2 -7 7 -13 19 -13 20 0
20 -1 3 -20 -10 -11 -37 -22 -64 -25 -81 -11 -103 -17 -94 -25 4 -5 28 -10 53
-12 29 -2 44 -7 43 -15 -2 -7 4 -13 12 -13 8 0 15 -7 15 -15 0 -8 -9 -15 -19
-15 -11 0 -23 -4 -26 -10 -3 -5 -21 -10 -39 -10 -39 0 -45 -5 -38 -32 4 -18
10 -19 58 -13 30 3 54 3 54 -2 -1 -12 -69 -53 -88 -53 -24 0 -46 -16 -38 -28
3 -6 24 -13 46 -17 22 -4 42 -11 45 -15 12 -19 -20 -48 -58 -54 l-40 -7 23
-24 c20 -21 21 -25 6 -30 -50 -16 -42 -20 54 -25 70 -4 118 -12 145 -24 37
-17 62 -18 320 -12 154 3 310 9 346 12 60 6 67 4 71 -13 6 -22 54 -29 233 -37
49 -2 91 -8 92 -13 5 -14 103 7 103 22 0 14 65 25 142 25 43 0 55 5 83 33 25
25 35 45 40 83 9 73 15 94 24 94 13 0 154 -417 146 -431 -6 -9 -59 -10 -234
-5 -278 8 -413 19 -651 53 -224 31 -566 42 -716 23 -203 -25 -374 -81 -510
-165 -39 -25 -74 -45 -78 -45 -12 0 -6 310 6 330 10 15 10 27 1 52 -16 44 -18
388 -3 388 7 0 9 8 5 20 -4 12 -1 27 5 35 7 8 10 21 7 28 -3 8 11 34 30 58 19
24 38 50 42 57 10 18 72 32 164 36 43 2 81 7 85 11 4 4 -4 16 -18 27 -14 11
-24 25 -22 30 1 5 -4 21 -12 36 -20 38 -31 122 -17 122 6 0 11 9 11 20 0 11 7
20 15 20 8 0 15 2 15 5 0 12 -24 55 -31 55 -5 0 -6 7 -3 15 9 23 -34 129 -67
166 -16 18 -29 39 -29 47 0 12 -9 13 -47 7 -72 -11 -136 -6 -149 11 -9 11 -18
12 -36 5 -14 -5 -29 -6 -34 -1 -5 5 -29 10 -54 12 -39 2 -46 0 -55 -20 -7 -16
-15 -20 -30 -15 -11 4 -31 7 -45 6 -14 0 -55 3 -92 9 -76 11 -294 -7 -317 -26
-7 -6 -32 -16 -55 -22 -22 -6 -40 -16 -39 -22 2 -7 -2 -12 -7 -12 -6 0 -10 -7
-10 -15 0 -11 -11 -15 -37 -16 l-38 -1 33 -9 c36 -11 38 -21 25 -139 -4 -47
-10 -64 -23 -67 -12 -3 -16 -12 -12 -29 4 -21 1 -24 -23 -24 -15 0 -25 -3 -23
-7 29 -60 31 -62 72 -65 39 -3 41 -5 48 -43 20 -116 -2 -318 -37 -338 -12 -6
-15 -34 -15 -135 0 -222 10 -234 210 -239 336 -8 439 -8 428 -1 -14 8 -15 8
35 36 21 12 47 22 58 22 13 0 19 7 19 23 1 12 7 33 15 47 13 22 14 -3 15 -221
0 -135 -3 -249 -6 -252 -4 -4 -19 2 -33 12 -92 65 -288 140 -445 170 -233 45
-435 46 -796 2 -252 -31 -665 -61 -831 -61 -90 0 -90 -2 -47 125 15 44 32 99
38 123 6 23 15 42 19 42 5 0 18 23 30 50 25 59 25 59 101 -32 34 -40 120 -88
158 -88 15 0 26 -7 29 -19 6 -22 66 -35 119 -25 31 6 33 8 17 19 -17 13 -17
14 0 21 24 9 171 -2 174 -13 7 -20 243 20 256 43 4 8 23 14 42 14 37 0 46 13
19 28 -21 12 -14 46 11 50 11 2 25 10 30 17 6 7 19 14 30 17 12 2 19 10 17 20
-1 9 6 22 17 27 18 10 18 13 4 41 -17 34 -12 60 12 60 13 0 14 4 5 20 -12 23
-6 40 16 40 22 0 17 29 -11 66 -14 18 -25 36 -25 40 0 4 -8 13 -17 20 -10 7
-13 14 -6 14 6 0 9 9 6 20 -4 13 0 20 9 20 14 0 18 26 6 45 -3 6 -8 28 -9 50
-4 39 -3 40 31 43 19 1 46 5 60 9 l25 6 -24 6 c-33 9 -98 106 -104 158 -5 42
12 74 44 85 10 3 8 10 -4 28 -9 14 -17 31 -17 38 0 8 -13 30 -30 49 -16 18
-30 38 -30 43 0 15 -60 99 -83 115 -16 11 -50 15 -134 15 -106 0 -113 -1 -113
-20 0 -19 -7 -20 -136 -20 l-136 0 5 28 c3 15 17 59 31 97 14 39 30 89 36 111
l10 42 178 6 c108 4 264 18 402 37 338 47 493 55 717 40 188 -12 318 -32 337
-51 6 -6 14 -6 23 1 7 6 20 9 28 5 29 -11 13 -210 -17 -203 -6 1 -13 -4 -16
-12 -2 -8 0 -11 6 -7 5 3 12 -1 16 -9 11 -29 59 -15 147 40 48 30 92 55 98 55
6 0 11 5 11 11 0 16 31 38 52 39 9 0 18 6 20 13 3 6 31 40 64 73 l59 61 126 2
c69 0 129 -3 135 -8z m2950 -91 c21 -16 56 -33 77 -36 20 -4 37 -9 37 -11 0
-3 -7 -29 -16 -59 -14 -50 -18 -54 -45 -54 -53 0 -69 15 -69 65 0 25 -5 45
-10 45 -20 0 -60 48 -54 64 9 24 36 19 80 -14z m634 -19 c0 -14 -25 -113 -46
-183 -8 -26 -41 -22 -189 21 -129 38 -130 38 -133 69 -3 29 -1 32 23 32 15 0
74 -14 131 -30 58 -17 109 -28 114 -25 4 3 16 29 26 58 9 28 21 59 25 69 11
20 49 12 49 -11z m-80 -273 c-1 -46 -12 -58 -56 -58 -39 0 -46 -3 -55 -27 -6
-16 -13 -45 -16 -65 -5 -31 -1 -41 21 -61 23 -21 25 -28 16 -52 -7 -17 -15
-25 -25 -22 -8 4 -70 54 -139 112 -123 105 -124 107 -115 138 5 18 9 33 9 34
0 6 74 10 208 12 116 1 152 -2 152 -11z m-2930 -68 c0 -22 -11 -24 -72 -14
-61 10 -49 34 17 34 48 0 55 -2 55 -20z m-2687 -61 c21 -6 56 -26 78 -46 63
-57 69 -92 69 -408 0 -315 -6 -351 -69 -408 -63 -56 -89 -61 -324 -54 l-208 6
-49 43 c-27 23 -54 54 -59 68 -12 31 -25 566 -15 638 6 48 11 56 67 105 l60
52 156 5 c86 4 179 7 206 8 28 1 67 -3 88 -9z m2430 -2 c22 -9 46 -46 110
-167 64 -121 86 -155 102 -155 16 0 38 34 102 154 44 85 89 158 97 163 19 11
109 14 289 11 l127 -3 0 -85 c0 -84 0 -85 -25 -85 l-25 0 0 -285 0 -285 25 0
c25 0 25 -1 25 -85 l0 -85 -205 0 -206 0 3 83 3 82 43 3 42 3 0 185 0 185 -52
-3 -51 -3 -17 -50 c-10 -27 -34 -83 -54 -122 l-36 -73 -83 0 -83 0 -60 124
-59 125 -37 0 -38 1 0 -184 0 -185 33 -3 32 -3 3 -82 3 -83 -201 0 -200 0 0
85 0 85 35 0 35 0 0 285 0 285 -35 0 -35 0 0 85 0 84 133 4 c72 1 155 3 182 4
28 1 63 -3 78 -10z m-913 -132 l0 -135 -125 0 -125 0 0 50 0 50 -105 0 -105 0
0 -100 0 -100 105 0 105 0 0 -75 0 -75 -105 0 -105 0 0 -110 0 -109 63 -3 62
-3 3 -82 3 -83 -236 0 -236 0 3 83 3 82 33 3 32 3 0 285 0 284 -35 0 -35 0 0
78 c0 43 3 82 7 85 3 4 183 7 400 7 l393 0 0 -135z m3706 32 c2 -7 -7 -46 -21
-87 -14 -40 -22 -77 -18 -81 5 -4 20 -10 34 -14 24 -6 27 -2 47 52 29 77 34
83 60 76 27 -7 27 -19 2 -78 -27 -62 -26 -91 3 -99 46 -12 53 -7 76 59 24 66
49 93 76 78 12 -7 10 -18 -9 -73 -13 -36 -34 -88 -47 -117 l-24 -51 -90 34
c-181 69 -215 85 -215 105 0 15 61 174 77 202 7 12 43 8 49 -6z m-66 -302 c34
-18 50 -43 50 -80 0 -22 4 -26 17 -20 10 3 46 9 80 12 59 6 63 5 63 -15 0 -33
-24 -49 -92 -61 -64 -11 -113 -38 -113 -61 0 -7 18 -20 40 -29 65 -26 75 -34
69 -58 -11 -41 -35 -36 -181 36 l-143 70 20 52 c60 151 113 194 190 154z m497
-407 c-3 -8 -6 -5 -6 6 -1 11 2 17 5 13 3 -3 4 -12 1 -19z m-2957 -5 c0 -10 3
-28 6 -41 6 -22 5 -23 -57 -20 -58 3 -64 5 -61 23 2 11 4 28 5 38 1 14 11 17
54 17 44 0 53 -3 53 -17z m2947 -35 c-3 -8 -6 -5 -6 6 -1 11 2 17 5 13 3 -3 4
-12 1 -19z m-742 -13 c16 -15 25 -36 25 -55 0 -25 4 -30 23 -30 31 0 46 12 44
34 -1 10 6 23 16 30 15 9 22 7 38 -13 15 -18 25 -22 49 -18 23 5 32 2 40 -13
15 -28 12 -37 -14 -44 -25 -6 -30 -15 -41 -78 -9 -57 -56 -98 -110 -98 -36 0
-48 5 -69 31 -17 20 -26 43 -26 65 0 33 -1 34 -40 34 -53 0 -80 27 -80 79 0
32 6 44 35 70 43 37 78 39 110 6z m-2165 -130 c0 -12 -16 -15 -85 -15 -69 0
-85 3 -85 15 0 12 16 15 85 15 69 0 85 -3 85 -15z m2007 -258 c122 -92 141
-112 126 -135 -9 -15 -27 -17 -132 -15 -66 1 -121 0 -121 -2 0 -2 29 -26 65
-54 47 -37 65 -58 65 -75 0 -12 -3 -25 -6 -29 -11 -10 -63 21 -176 105 l-107
80 15 30 16 31 114 -7 c63 -4 114 -5 114 -2 0 2 -29 27 -65 55 -64 50 -77 75
-53 99 14 14 23 9 145 -81z m-4087 -216 c36 -6 98 -15 138 -21 40 -6 114 -26
165 -45 51 -19 100 -35 109 -35 9 0 28 -12 41 -26 31 -34 81 -44 202 -42 l100
2 -95 7 c-72 5 -50 6 95 5 174 -1 193 1 230 20 184 96 183 95 376 119 217 26
649 18 1099 -20 102 -8 242 -20 312 -26 70 -6 132 -8 138 -4 8 5 9 -9 4 -45
-7 -51 -7 -52 41 -100 43 -43 47 -52 38 -72 -14 -31 -286 -221 -498 -348 -193
-116 -514 -277 -685 -343 -124 -48 -518 -180 -665 -222 -199 -57 -600 -122
-869 -140 l-99 -6 6 33 c3 18 22 62 43 98 39 64 39 66 45 195 7 172 20 200
128 290 127 105 165 193 123 287 -24 54 -124 135 -237 191 -87 43 -135 57
-202 57 -48 0 -53 2 -72 34 -26 41 -118 85 -197 93 -46 5 -55 9 -60 29 -7 29
-28 30 -61 4 -38 -30 -63 -26 -63 8 0 16 2 31 4 33 8 8 301 -1 366 -10z m3876
-30 c70 -50 94 -86 94 -142 0 -60 -17 -95 -66 -139 -35 -31 -40 -32 -105 -28
-62 3 -72 7 -105 38 -48 47 -74 100 -74 154 0 117 157 189 256 117z m-3356
-114 c13 -5 13 -6 -1 -6 -9 -1 -24 9 -35 22 -19 22 -19 22 1 6 11 -9 27 -19
35 -22z m3125 -184 c63 -59 115 -112 115 -118 0 -7 -9 -20 -20 -30 -20 -18
-22 -16 -132 91 -62 60 -115 110 -117 111 -8 5 18 53 29 53 5 0 62 -48 125
-107z m-173 -3 c-1 -13 -12 -34 -24 -47 l-21 -23 92 -95 c80 -83 90 -97 81
-115 -21 -39 -51 -24 -136 66 -77 82 -82 86 -105 74 -13 -7 -32 -20 -42 -28
-16 -14 -20 -14 -40 6 l-22 23 89 85 c63 61 95 84 110 82 16 -2 20 -9 18 -28z
m1025 -112 c-3 -8 -6 -5 -6 6 -1 11 2 17 5 13 3 -3 4 -12 1 -19z m-1147 -180
c74 -38 139 -73 144 -78 4 -4 -2 -18 -14 -30 -16 -16 -29 -20 -47 -15 -70 17
-77 16 -117 -18 -38 -33 -38 -33 -28 -80 9 -43 8 -49 -11 -62 -30 -21 -34 -19
-47 23 -7 20 -30 84 -51 142 -54 149 -55 154 -29 180 27 27 32 25 200 -62z
m1097 5 c-2 -16 -4 -5 -4 22 0 28 2 40 4 28 2 -13 2 -35 0 -50z m-1375 -49
c11 -24 9 -28 -21 -53 -39 -32 -38 -37 39 -136 83 -106 85 -110 61 -134 -12
-12 -25 -21 -31 -21 -5 0 -42 46 -81 103 -40 56 -74 104 -76 107 -2 2 -24 -6
-48 -19 l-43 -23 -20 20 c-24 24 -18 35 48 77 25 16 67 46 93 67 27 21 53 38
58 38 5 0 15 -12 21 -26z m1375 -51 c-3 -10 -5 -4 -5 12 0 17 2 24 5 18 2 -7
2 -21 0 -30z m10 -75 c-3 -8 -6 -5 -6 6 -1 11 2 17 5 13 3 -3 4 -12 1 -19z
m-1620 -84 l28 -26 -23 -19 c-18 -14 -33 -17 -66 -13 -47 7 -76 -11 -76 -47 0
-23 2 -23 64 -4 81 25 132 20 167 -14 41 -42 41 -97 -2 -146 -17 -19 -37 -35
-45 -35 -8 0 -17 -7 -20 -15 -10 -24 -99 -20 -124 5 -22 22 -24 29 -10 50 6
10 25 14 66 12 65 -3 84 8 84 51 l0 30 -47 -7 c-145 -20 -140 -21 -173 12 -39
39 -40 79 -3 123 61 72 131 89 180 43z m-264 -140 c4 -23 -3 -29 -69 -62 l-73
-36 15 -27 14 -28 75 36 c42 19 77 34 79 32 2 -2 6 -16 10 -31 6 -25 1 -29
-54 -59 -54 -28 -60 -35 -60 -63 0 -63 11 -65 99 -19 68 36 82 40 97 29 16
-13 17 -15 2 -37 -9 -13 -54 -44 -101 -68 -66 -34 -89 -41 -103 -33 -21 11
-153 241 -157 273 -2 15 20 31 98 73 55 29 105 51 111 49 7 -2 14 -16 17 -29z
m-263 -118 c0 -8 2 -20 5 -28 4 -9 -17 -24 -60 -46 -65 -32 -70 -38 -59 -79 6
-21 6 -21 47 -4 73 31 95 33 107 12 17 -33 12 -39 -50 -62 -33 -12 -60 -23
-60 -24 0 -1 12 -28 26 -58 27 -61 23 -90 -14 -99 -16 -4 -31 19 -92 142 -40
81 -71 154 -67 162 5 14 179 97 205 98 6 0 12 -6 12 -14z m-4617 -83 c61 -38
72 -100 25 -150 -15 -16 -33 -23 -61 -23 -30 0 -37 -3 -29 -12 10 -14 32 -106
32 -138 0 -14 -7 -20 -21 -20 -44 0 -58 18 -65 81 -7 62 -39 124 -63 124 -7 0
-21 -22 -32 -49 -23 -61 -29 -67 -57 -60 -35 10 -28 48 36 179 32 66 61 125
65 132 8 13 101 -22 170 -64z m4401 -154 c32 -73 60 -146 63 -164 5 -29 2 -33
-23 -38 -16 -3 -32 -2 -35 1 -13 14 -98 229 -107 270 -9 40 -8 44 11 52 12 5
25 9 28 9 3 1 32 -58 63 -130z m-4051 11 c5 -4 6 -17 3 -28 -7 -20 -7 -20 -86
1 -85 22 -97 20 -102 -23 -2 -17 3 -25 17 -28 11 -2 43 -13 71 -23 46 -17 51
-22 46 -45 -4 -22 -8 -24 -36 -18 -17 3 -53 15 -81 25 -54 21 -57 19 -74 -30
-13 -39 -10 -47 24 -55 14 -4 51 -16 81 -27 48 -18 54 -23 48 -42 -3 -12 -7
-23 -9 -25 -4 -4 -131 37 -184 61 l-51 22 38 110 c21 61 48 131 60 157 l21 48
103 -36 c57 -20 107 -39 111 -44z m3877 67 c0 -1 25 -71 55 -156 30 -85 55
-158 55 -162 0 -4 -16 -11 -35 -15 -40 -7 -52 -1 -140 75 -33 28 -63 51 -67
51 -4 0 6 -39 23 -87 16 -48 29 -90 29 -94 0 -12 -55 -18 -62 -6 -20 33 -110
288 -105 300 3 8 18 18 33 21 21 6 33 1 58 -22 51 -48 146 -122 157 -122 5 0
1 17 -10 38 -18 35 -51 135 -51 154 0 5 10 13 23 18 23 9 37 12 37 7z m-3696
-118 c54 -15 96 -59 96 -99 0 -30 -1 -31 -32 -25 -18 4 -34 11 -36 15 -9 23
-31 41 -59 46 -30 6 -33 4 -33 -19 0 -19 12 -32 50 -57 28 -18 57 -42 65 -53
23 -33 19 -91 -8 -123 -47 -54 -175 -38 -221 28 -17 24 -22 83 -7 92 18 12 52
-10 69 -44 15 -31 21 -35 57 -35 35 0 40 3 42 25 2 20 -9 33 -60 70 -58 42
-62 48 -65 88 -3 36 1 47 27 72 32 32 54 36 115 19z m3322 -61 c47 -52 144
-176 160 -206 20 -39 18 -49 -13 -55 -22 -4 -33 0 -49 21 -22 26 -23 26 -80
14 -64 -13 -84 -31 -84 -73 0 -20 -6 -28 -25 -31 -13 -3 -27 -3 -30 0 -7 8 -5
130 4 245 5 67 12 102 22 108 29 18 65 9 95 -23z m-3041 -19 c89 -17 123 -29
129 -44 12 -31 -4 -43 -56 -41 l-52 1 -31 -125 c-30 -119 -32 -125 -58 -128
-26 -3 -27 -1 -27 40 0 24 11 86 25 138 14 52 25 98 25 102 0 4 -17 10 -37 14
-43 8 -53 18 -46 45 6 21 11 21 128 -2z m2795 -14 c0 -2 14 -65 30 -138 37
-168 38 -183 5 -190 -31 -5 -38 6 -55 86 -6 31 -16 55 -21 52 -5 -4 -9 -42 -9
-86 0 -77 -1 -79 -24 -79 -13 0 -31 -2 -38 -5 -11 -4 -29 26 -67 106 -28 61
-53 110 -55 108 -5 -5 7 -64 28 -139 24 -81 21 -97 -13 -102 l-30 -4 -36 145
c-45 186 -45 191 -1 191 19 0 41 3 50 6 11 4 26 -18 61 -90 25 -53 50 -96 55
-96 6 0 10 45 10 110 l0 109 33 10 c35 10 77 14 77 6z m-2441 -69 c68 -36 96
-104 80 -194 -16 -83 -79 -142 -153 -142 -58 0 -127 37 -149 80 -14 26 -17 53
-15 107 3 62 7 76 34 110 49 61 130 77 203 39z m4121 -116 c-7 -61 -10 -141
-8 -178 3 -38 2 -59 -3 -47 -11 29 -11 137 1 234 6 46 9 86 6 88 -3 3 -17 -4
-33 -14 -38 -27 -61 -39 -48 -26 18 18 89 63 93 58 2 -2 -2 -54 -8 -115z
m-3847 75 c112 -11 154 -44 141 -110 -6 -33 -25 -57 -66 -88 -16 -11 -15 -15
12 -59 16 -26 32 -58 36 -72 6 -24 4 -26 -28 -26 -32 0 -36 4 -64 61 -30 64
-64 99 -95 99 -15 0 -19 -7 -19 -34 0 -18 -3 -48 -6 -65 -6 -26 -11 -31 -35
-31 -27 0 -29 2 -29 43 1 56 27 274 35 286 3 6 18 8 33 6 15 -2 53 -7 85 -10z
m1537 -12 c0 -5 7 -62 15 -128 8 -65 15 -139 15 -163 l0 -43 -37 3 c-31 2 -44
12 -77 53 -23 28 -54 66 -69 85 l-28 35 5 -97 4 -98 -29 0 c-16 0 -29 4 -29 8
0 5 -6 55 -14 113 -8 57 -17 130 -20 162 l-6 58 37 -3 c38 -3 44 -9 145 -138
l27 -35 1 98 0 97 30 0 c17 0 30 -3 30 -7z m-1135 -98 c29 -81 85 -255 85
-267 0 -5 -16 -8 -35 -8 -31 0 -35 3 -46 40 l-12 40 -68 0 c-66 0 -69 -1 -84
-30 -13 -25 -22 -30 -50 -30 l-35 0 24 63 c13 34 46 108 75 165 50 99 52 102
85 102 32 0 34 -2 61 -75z m764 46 c46 -33 62 -71 62 -151 1 -126 -47 -173
-168 -168 -81 4 -104 18 -134 83 -22 48 -25 135 -5 173 18 34 53 68 86 81 40
17 123 8 159 -18z m-480 13 c56 -6 61 -9 61 -30 0 -22 -4 -24 -50 -24 l-50 0
0 -140 0 -140 -35 0 -35 0 0 140 0 140 -45 0 c-43 0 -45 1 -45 30 l0 30 69 0
c37 0 96 -3 130 -6z m169 -171 l2 -173 -35 0 -35 0 0 176 0 175 33 -3 32 -3 3
-172z m2582 12 c0 -2 -22 -16 -50 -30 -27 -14 -50 -23 -50 -20 0 2 21 16 48
29 53 28 52 28 52 21z m-1730 -96 c0 -52 -13 -89 -32 -89 -7 0 -9 13 -5 35 4
25 2 35 -7 35 -18 0 -28 53 -13 62 7 4 22 8 35 8 20 0 22 -5 22 -51z m2165
-111 l4 -63 -8 52 c-5 29 -12 65 -15 80 -5 22 -4 24 4 11 6 -9 12 -45 15 -80z
m-915 -18 c-8 -5 -19 -10 -25 -10 -5 0 -3 5 5 10 8 5 20 10 25 10 6 0 3 -5 -5
-10z m-50 -20 c-8 -5 -19 -10 -25 -10 -5 0 -3 5 5 10 8 5 20 10 25 10 6 0 3
-5 -5 -10z m-40 -14 c0 -6 -93 -37 -97 -32 -2 2 15 11 39 19 47 17 58 19 58
13z m-703 -202 c-3 -3 -12 -4 -19 -1 -8 3 -5 6 6 6 11 1 17 -2 13 -5z m-44
-11 c-7 -2 -19 -2 -25 0 -7 3 -2 5 12 5 14 0 19 -2 13 -5z m-46 -9 c-3 -3 -12
-4 -19 -1 -8 3 -5 6 6 6 11 1 17 -2 13 -5z m-44 -11 c-7 -2 -19 -2 -25 0 -7 3
-2 5 12 5 14 0 19 -2 13 -5z m-63 -13 c-14 -4 -36 -8 -50 -8 -22 0 -22 1 5 8
17 4 39 8 50 8 16 0 15 -2 -5 -8z m-87 -17 c-7 -2 -21 -2 -30 0 -10 3 -4 5 12
5 17 0 24 -2 18 -5z m-1813 -11 c0 -4 17 -6 38 -4 20 3 35 2 32 -1 -11 -11
-75 -11 -95 1 -19 11 -19 11 3 12 12 0 22 -4 22 -8z m1748 1 c-10 -2 -26 -2
-35 0 -10 3 -2 5 17 5 19 0 27 -2 18 -5z m-70 -10 c-10 -2 -28 -2 -40 0 -13 2
-5 4 17 4 22 1 32 -1 23 -4z m-1513 -12 c26 -6 31 -9 15 -9 -14 -1 -43 3 -65
7 -26 6 -31 9 -15 9 14 1 43 -3 65 -7z m1433 2 c-10 -2 -28 -2 -40 0 -13 2 -5
4 17 4 22 1 32 -1 23 -4z m-1577 -30 c-12 -20 -14 -14 -5 12 4 9 9 14 11 11 3
-2 0 -13 -6 -23z m1492 20 c-13 -2 -35 -2 -50 0 -16 2 -5 4 22 4 28 0 40 -2
28 -4z m-1250 -10 c-7 -2 -21 -2 -30 0 -10 3 -4 5 12 5 17 0 24 -2 18 -5z
m1145 0 c-15 -2 -42 -2 -60 0 -18 2 -6 4 27 4 33 0 48 -2 33 -4z m-1060 -10
c-10 -2 -28 -2 -40 0 -13 2 -5 4 17 4 22 1 32 -1 23 -4z m910 0 c-21 -2 -55
-2 -75 0 -21 2 -4 4 37 4 41 0 58 -2 38 -4z m-351 -10 c-98 -2 -256 -2 -350 0
-95 1 -14 3 178 2 193 0 270 -1 172 -2z m-914 -20 c-7 -2 -21 -2 -30 0 -10 3
-4 5 12 5 17 0 24 -2 18 -5z m344 -139 c-3 -3 -12 -4 -19 -1 -8 3 -5 6 6 6 11
1 17 -2 13 -5z m40 -10 c-3 -3 -12 -4 -19 -1 -8 3 -5 6 6 6 11 1 17 -2 13 -5z
m2310 0 c-3 -3 -12 -4 -19 -1 -8 3 -5 6 6 6 11 1 17 -2 13 -5z m-40 -10 c-3
-3 -12 -4 -19 -1 -8 3 -5 6 6 6 11 1 17 -2 13 -5z m-2200 -10 c-3 -3 -12 -4
-19 -1 -8 3 -5 6 6 6 11 1 17 -2 13 -5z m2160 0 c-3 -3 -12 -4 -19 -1 -8 3 -5
6 6 6 11 1 17 -2 13 -5z m-50 -10 c-3 -3 -12 -4 -19 -1 -8 3 -5 6 6 6 11 1 17
-2 13 -5z m-2020 -10 c-3 -3 -12 -4 -19 -1 -8 3 -5 6 6 6 11 1 17 -2 13 -5z
m1976 -1 c-7 -2 -19 -2 -25 0 -7 3 -2 5 12 5 14 0 19 -2 13 -5z m-1936 -9 c-3
-3 -12 -4 -19 -1 -8 3 -5 6 6 6 11 1 17 -2 13 -5z m1890 0 c-3 -3 -12 -4 -19
-1 -8 3 -5 6 6 6 11 1 17 -2 13 -5z"/>
<path d="M3220 9217 c-18 -9 -26 -22 -28 -47 -4 -43 20 -80 41 -65 8 6 45 30
81 55 36 24 66 47 66 51 0 20 -123 25 -160 6z"/>
<path d="M3405 9219 c-11 -17 1 -21 15 -4 8 9 8 15 2 15 -6 0 -14 -5 -17 -11z"/>
<path d="M2877 8863 c-13 -12 -7 -53 7 -53 17 0 48 39 40 52 -6 10 -38 11 -47
1z"/>
<path d="M4050 8462 c0 -51 23 -113 52 -137 16 -14 35 -25 42 -25 9 0 15 -23
20 -69 12 -132 25 -125 25 14 1 89 -2 125 -9 115 -7 -10 -12 -12 -17 -4 -5 6
-27 19 -50 29 -34 15 -43 24 -43 44 0 14 -5 33 -10 41 -8 12 -10 10 -10 -8z"/>
<path d="M3996 8448 c-3 -13 -6 -43 -6 -68 0 -57 -12 -70 -58 -63 l-35 6 6
-115 c3 -79 2 -119 -6 -127 -18 -18 -69 -13 -107 10 l-35 21 40 -43 c76 -85
157 -132 199 -116 18 7 22 52 6 62 -6 4 -25 34 -42 68 -26 51 -32 77 -36 145
-5 92 2 100 45 52 47 -53 54 -43 47 78 -4 59 -8 108 -9 110 -1 1 -5 -8 -9 -20z"/>
<path d="M4220 8353 c0 -11 114 -183 122 -183 17 0 -6 66 -28 83 -13 10 -24
24 -24 31 0 6 -13 26 -29 44 -29 32 -41 39 -41 25z"/>
<path d="M3457 8223 c-4 -3 -7 -21 -7 -39 0 -26 -6 -37 -30 -51 -32 -19 -39
-33 -15 -33 8 0 17 -11 21 -24 11 -46 53 -61 159 -57 l50 2 -50 25 c-27 13
-65 40 -83 60 -30 31 -33 41 -30 80 3 42 -1 52 -15 37z"/>
<path d="M3524 8187 c16 -14 46 -33 67 -42 36 -17 39 -17 65 4 21 17 23 22 11
27 -9 3 -21 3 -27 -1 -6 -4 -16 -2 -23 3 -7 5 -29 12 -50 16 -21 4 -46 10 -55
12 -9 3 -4 -6 12 -19z"/>
<path d="M4367 8063 c7 -38 17 -162 22 -278 7 -140 15 -230 26 -270 9 -33 18
-88 18 -122 2 -67 11 -79 27 -38 7 18 5 62 -5 138 -8 62 -15 118 -15 125 0 6
-7 12 -15 12 -12 0 -15 19 -15 113 0 124 -14 274 -31 342 -18 71 -27 52 -12
-22z"/>
<path d="M3371 8033 c-1 -18 -5 -33 -11 -33 -5 0 -19 -9 -30 -20 -11 -11 -32
-20 -47 -20 -26 0 -26 0 -7 -21 23 -26 76 -53 131 -68 58 -16 255 -41 266 -34
18 11 -24 24 -95 30 -68 6 -75 9 -120 51 -30 28 -55 63 -67 96 -19 48 -20 49
-20 19z"/>
<path d="M2489 7983 c63 -117 74 -133 84 -124 7 5 29 12 49 16 46 9 40 25 -8
25 -27 0 -36 5 -43 23 -10 25 -65 77 -82 77 -6 0 -6 -7 0 -17z"/>
<path d="M3227 7983 c-4 -3 -7 -30 -7 -59 0 -37 -6 -63 -22 -88 -27 -41 -33
-43 -48 -16 -12 23 -30 27 -30 7 0 -20 104 -65 189 -82 41 -9 99 -23 129 -31
29 -9 56 -13 60 -9 11 10 -18 23 -93 40 -38 9 -80 20 -92 25 -36 15 -63 80
-63 155 0 60 -6 75 -23 58z"/>
<path d="M2730 7801 c0 -11 74 -106 90 -116 34 -21 20 33 -18 74 -30 32 -72
57 -72 42z"/>
<path d="M3105 7737 c-11 -18 -39 -41 -63 -51 -27 -13 -45 -28 -48 -43 -6 -21
-10 -22 -48 -17 -22 4 -54 13 -70 20 -40 19 -41 13 -6 -21 17 -16 30 -34 30
-41 0 -13 121 -143 354 -383 116 -119 194 -181 225 -181 8 0 49 -20 91 -45 80
-47 192 -82 232 -72 13 4 32 13 43 21 18 13 13 14 -48 9 -47 -4 -67 -2 -67 6
0 23 -63 52 -102 45 -30 -4 -37 -2 -42 14 -4 11 -31 31 -60 45 -30 14 -57 31
-61 37 -4 6 -31 22 -60 34 -39 18 -61 36 -86 72 -50 74 -99 124 -120 124 -11
0 -19 5 -19 10 0 6 -7 10 -15 10 -8 0 -15 7 -15 15 0 8 -13 30 -30 48 -16 19
-30 38 -30 42 0 5 43 5 96 2 54 -4 94 -4 91 0 -12 11 -140 32 -199 33 l-58 0
0 39 c0 21 -3 58 -6 82 l-6 44 69 20 c40 12 91 19 126 18 31 -2 57 0 57 2 0 2
-24 11 -53 20 -41 12 -57 22 -68 44 l-14 29 -20 -31z"/>
<path d="M4111 7245 c-17 -20 -31 -41 -31 -47 0 -14 48 29 62 55 17 33 1 29
-31 -8z"/>
<path d="M3960 7015 c-24 -25 -39 -45 -32 -45 19 0 85 65 81 79 -3 7 -23 -8
-49 -34z"/>
<path d="M7810 6452 c-34 -29 -37 -62 -6 -62 17 0 68 69 60 82 -8 13 -18 10
-54 -20z"/>
<path d="M7906 6348 c4 -29 7 -60 5 -68 -17 -137 -11 -160 41 -160 30 0 30 0
24 45 -5 29 -4 45 3 45 17 0 13 46 -5 61 -12 10 -14 23 -9 60 6 41 4 49 -14
58 -44 24 -54 15 -45 -41z"/>
<path d="M3807 6282 c-49 -49 -56 -62 -34 -62 19 1 109 88 102 100 -10 17 -19
12 -68 -38z"/>
<path d="M7500 6276 c-108 -56 -256 -116 -430 -177 -105 -36 -166 -62 -168
-72 -2 -8 9 -24 23 -35 34 -27 192 -64 276 -65 100 -2 122 16 191 148 45 88
63 114 93 131 39 23 105 83 105 96 0 15 -24 7 -90 -26z"/>
<path d="M3714 6189 c-23 -24 -26 -32 -14 -39 15 -9 60 25 60 47 0 24 -18 21
-46 -8z"/>
<path d="M8766 5795 c-11 -31 -6 -35 45 -35 47 0 50 2 47 23 -2 18 -10 23 -44
25 -31 2 -43 -1 -48 -13z"/>
<path d="M9230 5772 c0 -67 36 -82 69 -28 33 53 28 66 -24 66 l-45 0 0 -38z"/>
<path d="M2810 4931 c-21 -6 -26 -14 -28 -50 -2 -23 2 -49 9 -57 14 -17 84
-18 149 -3 l45 10 75 -81 c84 -91 91 -93 180 -59 59 22 70 32 70 66 0 31 -52
60 -141 78 -41 8 -110 33 -154 54 -81 41 -157 56 -205 42z"/>
<path d="M3066 4625 c-3 -9 -6 -22 -6 -29 0 -32 115 -50 127 -20 9 24 -29 55
-74 61 -32 4 -41 2 -47 -12z"/>
<path d="M5998 4863 c7 -3 16 -2 19 1 4 3 -2 6 -13 5 -11 0 -14 -3 -6 -6z"/>
<path d="M5621 4124 c0 -11 3 -14 6 -6 3 7 2 16 -1 19 -3 4 -6 -2 -5 -13z"/>
<path d="M9550 4952 c0 -11 84 -72 98 -72 6 0 14 10 17 23 18 61 22 57 -49 57
-36 0 -66 -4 -66 -8z"/>
<path d="M3910 4435 l0 -285 110 0 110 0 0 285 0 285 -110 0 -110 0 0 -285z"/>
<path d="M9286 4393 c-28 -45 -40 -79 -29 -86 5 -3 24 -8 44 -12 35 -6 37 -5
53 34 23 58 21 87 -6 95 -35 9 -36 8 -62 -31z"/>
<path d="M9034 3975 c-11 -27 4 -45 36 -45 25 0 30 4 30 24 0 34 -55 52 -66
21z"/>
<path d="M9150 3852 c0 -33 16 -52 45 -52 31 0 44 13 51 48 l7 32 -52 0 c-49
0 -51 -1 -51 -28z"/>
<path d="M8586 3334 c-49 -50 -32 -109 48 -171 66 -52 146 -13 146 70 0 40 -5
49 -45 86 -56 51 -107 57 -149 15z"/>
<path d="M8090 2781 c0 -5 9 -30 20 -56 20 -47 25 -49 63 -17 26 22 21 35 -23
60 -42 24 -60 28 -60 13z"/>
<path d="M2424 2165 c-20 -48 -19 -51 26 -69 52 -21 96 -21 104 0 14 36 5 51
-47 77 -29 15 -56 27 -60 27 -4 0 -15 -16 -23 -35z"/>
<path d="M6376 1858 c-3 -13 -6 -38 -6 -55 0 -31 1 -32 33 -26 58 11 60 15 26
61 -35 48 -44 51 -53 20z"/>
<path d="M3608 1790 c-30 -23 -51 -97 -42 -146 11 -58 78 -91 139 -68 61 24
68 202 9 224 -40 15 -79 12 -106 -10z"/>
<path d="M3950 1705 l0 -45 64 0 c67 0 76 6 76 51 0 24 -36 39 -96 39 l-44 0
0 -45z"/>
<path d="M4326 1649 c-8 -19 -18 -47 -21 -62 -7 -26 -6 -27 34 -27 41 0 41 0
41 39 0 24 -8 48 -19 62 l-20 24 -15 -36z"/>
<path d="M5015 1684 c-21 -23 -25 -37 -25 -91 0 -58 3 -68 29 -94 34 -33 82
-39 118 -14 51 35 54 167 6 205 -38 30 -97 27 -128 -6z"/>
</g>
</svg>
